<svg width="1439" height="60" viewBox="0 0 1439 60" fill="none" xmlns="http://www.w3.org/2000/svg">
<line x1="0.623712" y1="20.712" x2="14.6237" y2="4.71201" stroke="#EC2A23"/>
<line x1="0.623712" y1="36.7945" x2="32.2319" y2="0.670845" stroke="#EC2A23"/>
<line x1="1.62371" y1="53.8358" x2="46.402" y2="2.66057" stroke="#EC2A23"/>
<line x1="16.6237" y1="54.1244" x2="61.402" y2="2.94914" stroke="#EC2A23"/>
<line x1="33.6237" y1="54.4129" x2="78.402" y2="3.23772" stroke="#EC2A23"/>
<line x1="46.6237" y1="54.7015" x2="91.402" y2="3.52629" stroke="#EC2A23"/>
<line x1="61.6237" y1="54.9901" x2="106.402" y2="3.81487" stroke="#EC2A23"/>
<line x1="76.6237" y1="55.2787" x2="121.402" y2="4.10344" stroke="#EC2A23"/>
<line x1="300.624" y1="57.8873" x2="345.402" y2="6.71208" stroke="#EC2A23"/>
<line x1="313.624" y1="58.1759" x2="358.402" y2="7.00066" stroke="#EC2A23"/>
<line x1="328.624" y1="58.4644" x2="373.402" y2="7.28923" stroke="#EC2A23"/>
<line x1="343.624" y1="58.753" x2="388.402" y2="7.57781" stroke="#EC2A23"/>
<line x1="358.624" y1="56.8873" x2="403.402" y2="5.71208" stroke="#EC2A23"/>
<line x1="371.624" y1="57.1759" x2="416.402" y2="6.00066" stroke="#EC2A23"/>
<line x1="386.624" y1="57.4644" x2="431.402" y2="6.28923" stroke="#EC2A23"/>
<line x1="401.624" y1="57.753" x2="446.402" y2="6.57781" stroke="#EC2A23"/>
<line x1="414.624" y1="56.8873" x2="459.402" y2="5.71208" stroke="#EC2A23"/>
<line x1="427.624" y1="57.1759" x2="472.402" y2="6.00066" stroke="#EC2A23"/>
<line x1="442.624" y1="57.4644" x2="487.402" y2="6.28923" stroke="#EC2A23"/>
<line x1="457.624" y1="57.753" x2="502.402" y2="6.57781" stroke="#EC2A23"/>
<line x1="474.624" y1="58.8873" x2="519.402" y2="7.71208" stroke="#EC2A23"/>
<line x1="487.624" y1="59.1759" x2="532.402" y2="8.00066" stroke="#EC2A23"/>
<line x1="502.624" y1="59.4644" x2="547.402" y2="8.28923" stroke="#EC2A23"/>
<line x1="517.624" y1="59.753" x2="562.402" y2="8.57781" stroke="#EC2A23"/>
<line x1="532.624" y1="57.8873" x2="577.402" y2="6.71208" stroke="#EC2A23"/>
<line x1="545.624" y1="58.1759" x2="590.402" y2="7.00066" stroke="#EC2A23"/>
<line x1="560.624" y1="58.4644" x2="605.402" y2="7.28923" stroke="#EC2A23"/>
<line x1="575.624" y1="58.753" x2="620.402" y2="7.57781" stroke="#EC2A23"/>
<line x1="590.624" y1="56.8873" x2="635.402" y2="5.71208" stroke="#EC2A23"/>
<line x1="603.624" y1="57.1759" x2="648.402" y2="6.00066" stroke="#EC2A23"/>
<line x1="618.624" y1="57.4644" x2="663.402" y2="6.28923" stroke="#EC2A23"/>
<line x1="633.624" y1="57.753" x2="678.402" y2="6.57781" stroke="#EC2A23"/>
<line x1="648.624" y1="56.8873" x2="693.402" y2="5.71208" stroke="#EC2A23"/>
<line x1="661.624" y1="57.1759" x2="706.402" y2="6.00066" stroke="#EC2A23"/>
<line x1="676.624" y1="57.4644" x2="721.402" y2="6.28923" stroke="#EC2A23"/>
<line x1="691.624" y1="57.753" x2="736.402" y2="6.57781" stroke="#EC2A23"/>
<line x1="708.624" y1="56.8873" x2="753.402" y2="5.71208" stroke="#EC2A23"/>
<line x1="721.624" y1="57.1759" x2="766.402" y2="6.00066" stroke="#EC2A23"/>
<line x1="736.624" y1="57.4644" x2="781.402" y2="6.28923" stroke="#EC2A23"/>
<line x1="751.624" y1="57.753" x2="796.402" y2="6.57781" stroke="#EC2A23"/>
<line x1="773.624" y1="55.8873" x2="818.402" y2="4.71208" stroke="#EC2A23"/>
<line x1="786.624" y1="56.1759" x2="831.402" y2="5.00066" stroke="#EC2A23"/>
<line x1="801.624" y1="56.4644" x2="846.402" y2="5.28923" stroke="#EC2A23"/>
<line x1="816.624" y1="56.753" x2="861.402" y2="5.57781" stroke="#EC2A23"/>
<line x1="831.624" y1="56.8873" x2="876.402" y2="5.71208" stroke="#EC2A23"/>
<line x1="844.624" y1="57.1759" x2="889.402" y2="6.00066" stroke="#EC2A23"/>
<line x1="859.624" y1="57.4644" x2="904.402" y2="6.28923" stroke="#EC2A23"/>
<line x1="874.624" y1="57.753" x2="919.402" y2="6.57781" stroke="#EC2A23"/>
<line x1="891.624" y1="55.8873" x2="936.402" y2="4.71208" stroke="#EC2A23"/>
<line x1="904.624" y1="56.1759" x2="949.402" y2="5.00066" stroke="#EC2A23"/>
<line x1="919.624" y1="56.4644" x2="964.402" y2="5.28923" stroke="#EC2A23"/>
<line x1="934.624" y1="56.753" x2="979.402" y2="5.57781" stroke="#EC2A23"/>
<line x1="949.624" y1="57.8873" x2="994.402" y2="6.71208" stroke="#EC2A23"/>
<line x1="962.624" y1="58.1759" x2="1007.4" y2="7.00066" stroke="#EC2A23"/>
<line x1="977.624" y1="58.4644" x2="1022.4" y2="7.28923" stroke="#EC2A23"/>
<line x1="992.624" y1="58.753" x2="1037.4" y2="7.57781" stroke="#EC2A23"/>
<line x1="1014.62" y1="54.8873" x2="1059.4" y2="3.71208" stroke="#EC2A23"/>
<line x1="1027.62" y1="55.1759" x2="1072.4" y2="4.00066" stroke="#EC2A23"/>
<line x1="1042.62" y1="55.4644" x2="1087.4" y2="4.28923" stroke="#EC2A23"/>
<line x1="1057.62" y1="55.753" x2="1102.4" y2="4.57781" stroke="#EC2A23"/>
<line x1="1072.62" y1="56.8873" x2="1117.4" y2="5.71208" stroke="#EC2A23"/>
<line x1="1085.62" y1="57.1759" x2="1130.4" y2="6.00066" stroke="#EC2A23"/>
<line x1="1100.62" y1="57.4644" x2="1145.4" y2="6.28923" stroke="#EC2A23"/>
<line x1="1115.62" y1="57.753" x2="1160.4" y2="6.57781" stroke="#EC2A23"/>
<line x1="1132.62" y1="54.8873" x2="1177.4" y2="3.71208" stroke="#EC2A23"/>
<line x1="1145.62" y1="55.1759" x2="1190.4" y2="4.00066" stroke="#EC2A23"/>
<line x1="1160.62" y1="55.4644" x2="1205.4" y2="4.28923" stroke="#EC2A23"/>
<line x1="1175.62" y1="55.753" x2="1220.4" y2="4.57781" stroke="#EC2A23"/>
<line x1="1190.62" y1="53.8873" x2="1235.4" y2="2.71208" stroke="#EC2A23"/>
<line x1="1203.62" y1="54.1759" x2="1248.4" y2="3.00066" stroke="#EC2A23"/>
<line x1="1218.62" y1="54.4644" x2="1263.4" y2="3.28923" stroke="#EC2A23"/>
<line x1="1233.62" y1="54.753" x2="1278.4" y2="3.57781" stroke="#EC2A23"/>
<line x1="1250.62" y1="54.8873" x2="1295.4" y2="3.71208" stroke="#EC2A23"/>
<line x1="1263.62" y1="55.1759" x2="1308.4" y2="4.00066" stroke="#EC2A23"/>
<line x1="1278.62" y1="55.4644" x2="1323.4" y2="4.28923" stroke="#EC2A23"/>
<line x1="1293.62" y1="55.753" x2="1338.4" y2="4.57781" stroke="#EC2A23"/>
<line x1="1306.62" y1="56.8873" x2="1351.4" y2="5.71208" stroke="#EC2A23"/>
<line x1="1319.62" y1="57.1759" x2="1364.4" y2="6.00066" stroke="#EC2A23"/>
<line x1="1334.62" y1="57.4644" x2="1379.4" y2="6.28923" stroke="#EC2A23"/>
<line x1="1349.62" y1="57.753" x2="1394.4" y2="6.57781" stroke="#EC2A23"/>
<line x1="1350.62" y1="56.8873" x2="1395.4" y2="5.71208" stroke="#EC2A23"/>
<line x1="1363.62" y1="57.1759" x2="1408.4" y2="6.00066" stroke="#EC2A23"/>
<line x1="1378.62" y1="57.4644" x2="1423.4" y2="6.28923" stroke="#EC2A23"/>
<line x1="1393.62" y1="57.753" x2="1438.4" y2="6.57781" stroke="#EC2A23"/>
<line x1="91.6237" y1="55.5672" x2="136.402" y2="4.39202" stroke="#EC2A23"/>
<line x1="106.624" y1="55.8558" x2="151.402" y2="4.68059" stroke="#EC2A23"/>
<line x1="121.624" y1="56.1444" x2="166.402" y2="4.96916" stroke="#EC2A23"/>
<line x1="136.624" y1="56.433" x2="181.402" y2="5.25774" stroke="#EC2A23"/>
<line x1="151.624" y1="56.7215" x2="196.402" y2="5.54631" stroke="#EC2A23"/>
<line x1="166.61" y1="57.0263" x2="209.189" y2="4.00717" stroke="#EC2A23"/>
<line x1="179.61" y1="58.7472" x2="222.189" y2="5.72811" stroke="#EC2A23"/>
<line x1="192.61" y1="58.4682" x2="235.189" y2="5.44906" stroke="#EC2A23"/>
<line x1="205.61" y1="58.1891" x2="248.189" y2="5.17001" stroke="#EC2A23"/>
<line x1="218.61" y1="57.9101" x2="261.189" y2="4.89095" stroke="#EC2A23"/>
<line x1="231.61" y1="56.631" x2="274.189" y2="3.6119" stroke="#EC2A23"/>
<line x1="244.61" y1="57.352" x2="287.189" y2="4.33285" stroke="#EC2A23"/>
<line x1="257.61" y1="57.0729" x2="300.189" y2="4.0538" stroke="#EC2A23"/>
<line x1="270.61" y1="56.7939" x2="313.189" y2="3.77474" stroke="#EC2A23"/>
<line x1="283.61" y1="57.5148" x2="326.189" y2="4.49569" stroke="#EC2A23"/>
</svg>
