<svg width="1435" height="58" viewBox="0 0 1435 58" fill="none" xmlns="http://www.w3.org/2000/svg">
<line x1="-3.37629" y1="17.6707" x2="10.6237" y2="1.67075" stroke="#EC2A23"/>
<line x1="-3.37629" y1="33.7533" x2="28.2319" y2="-2.37041" stroke="#EC2A23"/>
<line x1="-2.37629" y1="50.7945" x2="42.402" y2="-0.380689" stroke="#EC2A23"/>
<line x1="12.6237" y1="51.0831" x2="57.402" y2="-0.092115" stroke="#EC2A23"/>
<line x1="29.6237" y1="51.3717" x2="74.402" y2="0.196459" stroke="#EC2A23"/>
<line x1="42.6237" y1="51.6602" x2="87.402" y2="0.485033" stroke="#EC2A23"/>
<line x1="57.6237" y1="51.9488" x2="102.402" y2="0.773608" stroke="#EC2A23"/>
<line x1="72.6237" y1="52.2374" x2="117.402" y2="1.06218" stroke="#EC2A23"/>
<line x1="296.624" y1="54.8459" x2="341.402" y2="3.6707" stroke="#EC2A23"/>
<line x1="309.624" y1="55.1345" x2="354.402" y2="3.95928" stroke="#EC2A23"/>
<line x1="324.624" y1="55.4231" x2="369.402" y2="4.24785" stroke="#EC2A23"/>
<line x1="339.624" y1="55.7116" x2="384.402" y2="4.53643" stroke="#EC2A23"/>
<line x1="354.624" y1="53.8459" x2="399.402" y2="2.6707" stroke="#EC2A23"/>
<line x1="367.624" y1="54.1345" x2="412.402" y2="2.95928" stroke="#EC2A23"/>
<line x1="382.624" y1="54.4231" x2="427.402" y2="3.24785" stroke="#EC2A23"/>
<line x1="397.624" y1="54.7116" x2="442.402" y2="3.53643" stroke="#EC2A23"/>
<line x1="410.624" y1="53.8459" x2="455.402" y2="2.6707" stroke="#EC2A23"/>
<line x1="423.624" y1="54.1345" x2="468.402" y2="2.95928" stroke="#EC2A23"/>
<line x1="438.624" y1="54.4231" x2="483.402" y2="3.24785" stroke="#EC2A23"/>
<line x1="453.624" y1="54.7116" x2="498.402" y2="3.53643" stroke="#EC2A23"/>
<line x1="470.624" y1="55.8459" x2="515.402" y2="4.6707" stroke="#EC2A23"/>
<line x1="483.624" y1="56.1345" x2="528.402" y2="4.95928" stroke="#EC2A23"/>
<line x1="498.624" y1="56.4231" x2="543.402" y2="5.24785" stroke="#EC2A23"/>
<line x1="513.624" y1="56.7116" x2="558.402" y2="5.53643" stroke="#EC2A23"/>
<line x1="528.624" y1="54.8459" x2="573.402" y2="3.6707" stroke="#EC2A23"/>
<line x1="541.624" y1="55.1345" x2="586.402" y2="3.95928" stroke="#EC2A23"/>
<line x1="556.624" y1="55.4231" x2="601.402" y2="4.24785" stroke="#EC2A23"/>
<line x1="571.624" y1="55.7116" x2="616.402" y2="4.53643" stroke="#EC2A23"/>
<line x1="586.624" y1="53.8459" x2="631.402" y2="2.6707" stroke="#EC2A23"/>
<line x1="599.624" y1="54.1345" x2="644.402" y2="2.95928" stroke="#EC2A23"/>
<line x1="614.624" y1="54.4231" x2="659.402" y2="3.24785" stroke="#EC2A23"/>
<line x1="629.624" y1="54.7116" x2="674.402" y2="3.53643" stroke="#EC2A23"/>
<line x1="644.624" y1="53.8459" x2="689.402" y2="2.6707" stroke="#EC2A23"/>
<line x1="657.624" y1="54.1345" x2="702.402" y2="2.95928" stroke="#EC2A23"/>
<line x1="672.624" y1="54.4231" x2="717.402" y2="3.24785" stroke="#EC2A23"/>
<line x1="687.624" y1="54.7116" x2="732.402" y2="3.53643" stroke="#EC2A23"/>
<line x1="704.624" y1="53.8459" x2="749.402" y2="2.6707" stroke="#EC2A23"/>
<line x1="717.624" y1="54.1345" x2="762.402" y2="2.95928" stroke="#EC2A23"/>
<line x1="732.624" y1="54.4231" x2="777.402" y2="3.24785" stroke="#EC2A23"/>
<line x1="747.624" y1="54.7116" x2="792.402" y2="3.53643" stroke="#EC2A23"/>
<line x1="769.624" y1="52.8459" x2="814.402" y2="1.6707" stroke="#EC2A23"/>
<line x1="782.624" y1="53.1345" x2="827.402" y2="1.95928" stroke="#EC2A23"/>
<line x1="797.624" y1="53.4231" x2="842.402" y2="2.24785" stroke="#EC2A23"/>
<line x1="812.624" y1="53.7116" x2="857.402" y2="2.53643" stroke="#EC2A23"/>
<line x1="827.624" y1="53.8459" x2="872.402" y2="2.6707" stroke="#EC2A23"/>
<line x1="840.624" y1="54.1345" x2="885.402" y2="2.95928" stroke="#EC2A23"/>
<line x1="855.624" y1="54.4231" x2="900.402" y2="3.24785" stroke="#EC2A23"/>
<line x1="870.624" y1="54.7116" x2="915.402" y2="3.53643" stroke="#EC2A23"/>
<line x1="887.624" y1="52.8459" x2="932.402" y2="1.6707" stroke="#EC2A23"/>
<line x1="900.624" y1="53.1345" x2="945.402" y2="1.95928" stroke="#EC2A23"/>
<line x1="915.624" y1="53.4231" x2="960.402" y2="2.24785" stroke="#EC2A23"/>
<line x1="930.624" y1="53.7116" x2="975.402" y2="2.53643" stroke="#EC2A23"/>
<line x1="945.624" y1="54.8459" x2="990.402" y2="3.6707" stroke="#EC2A23"/>
<line x1="958.624" y1="55.1345" x2="1003.4" y2="3.95928" stroke="#EC2A23"/>
<line x1="973.624" y1="55.4231" x2="1018.4" y2="4.24785" stroke="#EC2A23"/>
<line x1="988.624" y1="55.7116" x2="1033.4" y2="4.53643" stroke="#EC2A23"/>
<line x1="1010.62" y1="51.8459" x2="1055.4" y2="0.670702" stroke="#EC2A23"/>
<line x1="1023.62" y1="52.1345" x2="1068.4" y2="0.959277" stroke="#EC2A23"/>
<line x1="1038.62" y1="52.4231" x2="1083.4" y2="1.24785" stroke="#EC2A23"/>
<line x1="1053.62" y1="52.7116" x2="1098.4" y2="1.53643" stroke="#EC2A23"/>
<line x1="1068.62" y1="53.8459" x2="1113.4" y2="2.6707" stroke="#EC2A23"/>
<line x1="1081.62" y1="54.1345" x2="1126.4" y2="2.95928" stroke="#EC2A23"/>
<line x1="1096.62" y1="54.4231" x2="1141.4" y2="3.24785" stroke="#EC2A23"/>
<line x1="1111.62" y1="54.7116" x2="1156.4" y2="3.53643" stroke="#EC2A23"/>
<line x1="1128.62" y1="51.8459" x2="1173.4" y2="0.670702" stroke="#EC2A23"/>
<line x1="1141.62" y1="52.1345" x2="1186.4" y2="0.959277" stroke="#EC2A23"/>
<line x1="1156.62" y1="52.4231" x2="1201.4" y2="1.24785" stroke="#EC2A23"/>
<line x1="1171.62" y1="52.7116" x2="1216.4" y2="1.53643" stroke="#EC2A23"/>
<line x1="1186.62" y1="50.8459" x2="1231.4" y2="-0.329298" stroke="#EC2A23"/>
<line x1="1199.62" y1="51.1345" x2="1244.4" y2="-0.0407234" stroke="#EC2A23"/>
<line x1="1214.62" y1="51.4231" x2="1259.4" y2="0.247851" stroke="#EC2A23"/>
<line x1="1229.62" y1="51.7116" x2="1274.4" y2="0.536425" stroke="#EC2A23"/>
<line x1="1246.62" y1="51.8459" x2="1291.4" y2="0.670702" stroke="#EC2A23"/>
<line x1="1259.62" y1="52.1345" x2="1304.4" y2="0.959277" stroke="#EC2A23"/>
<line x1="1274.62" y1="52.4231" x2="1319.4" y2="1.24785" stroke="#EC2A23"/>
<line x1="1289.62" y1="52.7116" x2="1334.4" y2="1.53643" stroke="#EC2A23"/>
<line x1="1302.62" y1="53.8459" x2="1347.4" y2="2.6707" stroke="#EC2A23"/>
<line x1="1315.62" y1="54.1345" x2="1360.4" y2="2.95928" stroke="#EC2A23"/>
<line x1="1330.62" y1="54.4231" x2="1375.4" y2="3.24785" stroke="#EC2A23"/>
<line x1="1345.62" y1="54.7116" x2="1390.4" y2="3.53643" stroke="#EC2A23"/>
<line x1="1346.62" y1="53.8459" x2="1391.4" y2="2.6707" stroke="#EC2A23"/>
<line x1="1359.62" y1="54.1345" x2="1404.4" y2="2.95928" stroke="#EC2A23"/>
<line x1="1374.62" y1="54.4231" x2="1419.4" y2="3.24785" stroke="#EC2A23"/>
<line x1="1389.62" y1="54.7116" x2="1434.4" y2="3.53643" stroke="#EC2A23"/>
<line x1="87.6237" y1="52.526" x2="132.402" y2="1.35076" stroke="#EC2A23"/>
<line x1="102.624" y1="52.8145" x2="147.402" y2="1.63933" stroke="#EC2A23"/>
<line x1="117.624" y1="53.1031" x2="162.402" y2="1.9279" stroke="#EC2A23"/>
<line x1="132.624" y1="53.3917" x2="177.402" y2="2.21648" stroke="#EC2A23"/>
<line x1="147.624" y1="53.6803" x2="192.402" y2="2.50505" stroke="#EC2A23"/>
<line x1="162.61" y1="53.985" x2="205.189" y2="0.965906" stroke="#EC2A23"/>
<line x1="175.61" y1="55.706" x2="218.189" y2="2.68685" stroke="#EC2A23"/>
<line x1="188.61" y1="55.4269" x2="231.189" y2="2.4078" stroke="#EC2A23"/>
<line x1="201.61" y1="55.1479" x2="244.189" y2="2.12875" stroke="#EC2A23"/>
<line x1="214.61" y1="54.8688" x2="257.189" y2="1.8497" stroke="#EC2A23"/>
<line x1="227.61" y1="53.5898" x2="270.189" y2="0.570643" stroke="#EC2A23"/>
<line x1="240.61" y1="54.3107" x2="283.189" y2="1.29159" stroke="#EC2A23"/>
<line x1="253.61" y1="54.0316" x2="296.189" y2="1.01254" stroke="#EC2A23"/>
<line x1="266.61" y1="53.7526" x2="309.189" y2="0.733484" stroke="#EC2A23"/>
<line x1="279.61" y1="54.4735" x2="322.189" y2="1.45443" stroke="#EC2A23"/>
</svg>
